<?xml version="1.0" encoding="utf-8"?>
<!-- Generator: Adobe Illustrator 27.2.0, SVG Export Plug-In . SVG Version: 6.00 Build 0)  -->
<svg version="1.1" baseProfile="tiny" id="Layer_1" xmlns="http://www.w3.org/2000/svg" xmlns:xlink="http://www.w3.org/1999/xlink"
	 x="0px" y="0px" viewBox="0 0 16 16" overflow="visible" xml:space="preserve">
<path fill-rule="evenodd" fill="#FFFFFF" d="M13.3,3.5c0.3-0.5,0.6-0.8,0.9-0.8c1,0,1.8,2.4,1.8,5.3s-0.8,5.3-1.8,5.3
	c-0.3,0-0.6-0.3-0.9-0.8c0.9-0.9,1.4-2.6,1.4-4.5C14.7,6.1,14.2,4.4,13.3,3.5c-0.3,0.5-0.5,1.1-0.6,1.9c-0.5-1-1.2-1.8-2-2.3v0
	c0.3-0.3,0.7-0.4,1.1-0.4C12.4,2.7,12.9,3,13.3,3.5z M9.5,4.7L9.5,4.7L9.5,4.7L9.5,4.7z M9.5,4.7c0.3-0.7,0.7-1.3,1.2-1.6
	c-0.5-0.3-1-0.4-1.6-0.4c-0.6,0-1.2,0.2-1.7,0.4C6.8,2.9,6.1,2.7,5.3,2.7C2.4,2.7,0,5.1,0,8s2.4,5.3,5.3,5.3c0.8,0,1.5-0.2,2.1-0.5
	C6,12,5,10.2,5,8c0-2.2,1-4,2.5-4.9C8.2,3.5,8.9,4.1,9.5,4.7z M9.5,11.3L9.5,11.3L9.5,11.3L9.5,11.3z M9.5,11.3
	c-0.5,0.7-1.2,1.2-2,1.6c0.5,0.3,1.1,0.5,1.7,0.5c0.6,0,1.1-0.1,1.6-0.4C10.2,12.5,9.8,12,9.5,11.3z M13.3,12.5
	c-0.3-0.5-0.5-1.1-0.6-1.9v0c-0.5,1-1.2,1.8-2,2.3c0.3,0.3,0.7,0.4,1.1,0.4C12.4,13.3,12.9,13,13.3,12.5z"/>
<path fill="#FFFFFF" d="M9.5,11.3c-0.4-0.9-0.6-2-0.6-3.3s0.2-2.4,0.6-3.3c0.7,0.9,1.1,2,1.1,3.3S10.2,10.4,9.5,11.3z"/>
<path fill="#FFFFFF" d="M12.7,10.6c-0.1-0.8-0.2-1.7-0.2-2.6s0.1-1.8,0.2-2.6C13,6.2,13.2,7.1,13.2,8S13,9.8,12.7,10.6z"/>
</svg>
